<svg id="color" enable-background="new 0 0 24 24" height="512" viewBox="0 0 24 24" width="512" xmlns="http://www.w3.org/2000/svg"><path d="m16.2 18.6-2.2-2.934-2.2 2.934c-.331.442-.956.533-1.399.2-.442-.331-.531-.958-.2-1.399l3-4c.377-.504 1.223-.504 1.6 0l3 4c.331.441.242 1.068-.2 1.399-.443.332-1.07.242-1.401-.2z" fill="#90a4ae"/><path d="m22.5 0h-13.5c.63.83 1 1.87 1 3 0 1-.3 1.93-.81 2.71 3.389 1.876 2.81 5.172 2.81 9.17l-.01.12h10.51c.83 0 1.5-.67 1.5-1.5v-12c0-.83-.67-1.5-1.5-1.5z" fill="#f5f5f5"/><path d="m14 15h-2l-1.8 2.4c-.331.441-.242 1.068.2 1.399.18.136.391.201.6.201.304 0 .604-.139.8-.401l2.2-2.934z" fill="#7d8f97"/><path d="m14 0h-5c.63.83 1 1.87 1 3 0 1-.3 1.93-.81 2.71 3.389 1.876 2.81 5.172 2.81 9.17l-.01.12h.01 2z" fill="#d5d5d5"/><path d="m5 6c-1.654 0-3-1.346-3-3s1.346-3 3-3 3 1.346 3 3-1.346 3-3 3z" fill="#2196f3"/><path d="m6.5 24h-3c-.827 0-1.5-.673-1.5-1.5v-5.382c0-.19-.105-.362-.276-.447l-.895-.447c-.511-.256-.829-.771-.829-1.342v-4.382c0-1.93 1.57-3.5 3.5-3.5h3c1.93 0 3.5 1.57 3.5 3.5v4.382c0 .571-.318 1.086-.829 1.342l-.895.447c-.171.085-.276.257-.276.447v5.382c0 .827-.673 1.5-1.5 1.5z" fill="#2196f3"/><path d="m5 0c-1.654 0-3 1.346-3 3s1.346 3 3 3z" fill="#1d83d4"/><path d="m5 7h-1.5c-1.93 0-3.5 1.57-3.5 3.5v4.382c0 .571.318 1.086.829 1.342l.895.447c.171.085.276.257.276.447v5.382c0 .827.673 1.5 1.5 1.5h1.5z" fill="#1d83d4"/><path d="m20.5 11.5h-3c-.276 0-.5-.224-.5-.5v-7.5c0-.276.224-.5.5-.5h3c.276 0 .5.224.5.5v7.5c0 .276-.224.5-.5.5z" fill="#2196f3"/><path d="m14.5 6h-3c-.28 0-.5.22-.5.5v.85c1.126 1.585 1 3.052 1 4.15h2.5c.28 0 .5-.22.5-.5v-4.5c0-.28-.22-.5-.5-.5z" fill="#64b5f6"/><path d="m13 6h-1.5c-.28 0-.5.22-.5.5v.85c1.126 1.585 1 3.052 1 4.15h1z" fill="#579ed6"/><path d="m19 3h-1.5c-.276 0-.5.224-.5.5v7.5c0 .276.224.5.5.5h1.5z" fill="#1d83d4"/><path d="m22 11c0 .55-.45 1-1 1h-9v-1.5c0-.17-.01-.34-.03-.5h9.03c.55 0 1 .45 1 1z" fill="#607d8b"/><path d="m22 11h-10v1h9c.55 0 1-.45 1-1z" fill="#546d79"/></svg>